<svg width="568" height="149" viewBox="0 0 568 149" fill="none" xmlns="http://www.w3.org/2000/svg">
<path d="M97.5764 15.3377C97.7561 14.7531 97.819 14.1389 97.7614 13.53C97.7038 12.9212 97.5268 12.3296 97.2406 11.7891C96.9543 11.2487 96.5645 10.7699 96.0932 10.3801C95.6219 9.99029 95.0785 9.69714 94.4939 9.51737C93.9094 9.3376 93.2951 9.27473 92.6862 9.33234C92.0774 9.38996 91.4858 9.56693 90.9454 9.85316C90.4049 10.1394 89.9261 10.5293 89.5363 11.0005C89.1465 11.4718 88.8534 12.0152 88.6736 12.5998L51.4236 133.662C51.0605 134.843 51.1813 136.119 51.7594 137.211C52.3375 138.302 53.3255 139.12 54.506 139.483C55.6866 139.846 56.9631 139.725 58.0546 139.147C59.1461 138.569 59.9633 137.581 60.3264 136.4L97.5764 15.3377V15.3377ZM45.2029 38.6096C45.6365 39.0421 45.9805 39.556 46.2152 40.1217C46.45 40.6873 46.5708 41.2938 46.5708 41.9062C46.5708 42.5187 46.45 43.1251 46.2152 43.6908C45.9805 44.2565 45.6365 44.7703 45.2029 45.2029L15.8964 74.5L45.2029 103.797C46.0772 104.671 46.5684 105.857 46.5684 107.094C46.5684 108.33 46.0772 109.516 45.2029 110.39C44.3285 111.265 43.1427 111.756 41.9062 111.756C40.6698 111.756 39.4839 111.265 38.6096 110.39L6.01587 77.7966C5.58225 77.3641 5.23822 76.8503 5.00348 76.2846C4.76875 75.7189 4.64792 75.1124 4.64792 74.5C4.64792 73.8875 4.76875 73.2811 5.00348 72.7154C5.23822 72.1497 5.58225 71.6359 6.01587 71.2034L38.6096 38.6096C39.0421 38.176 39.556 37.832 40.1217 37.5972C40.6873 37.3625 41.2938 37.2417 41.9062 37.2417C42.5187 37.2417 43.1251 37.3625 43.6908 37.5972C44.2565 37.832 44.7703 38.176 45.2029 38.6096V38.6096ZM103.797 38.6096C103.363 39.0421 103.019 39.556 102.785 40.1217C102.55 40.6873 102.429 41.2938 102.429 41.9062C102.429 42.5187 102.55 43.1251 102.785 43.6908C103.019 44.2565 103.363 44.7703 103.797 45.2029L133.104 74.5L103.797 103.797C103.364 104.23 103.021 104.744 102.786 105.31C102.552 105.875 102.432 106.482 102.432 107.094C102.432 107.706 102.552 108.312 102.786 108.878C103.021 109.443 103.364 109.957 103.797 110.39C104.23 110.823 104.744 111.167 105.31 111.401C105.875 111.635 106.481 111.756 107.094 111.756C107.706 111.756 108.312 111.635 108.878 111.401C109.443 111.167 109.957 110.823 110.39 110.39L142.984 77.7966C143.418 77.3641 143.762 76.8503 143.996 76.2846C144.231 75.7189 144.352 75.1124 144.352 74.5C144.352 73.8875 144.231 73.2811 143.996 72.7154C143.762 72.1497 143.418 71.6359 142.984 71.2034L110.39 38.6096C109.958 38.176 109.444 37.832 108.878 37.5972C108.313 37.3625 107.706 37.2417 107.094 37.2417C106.481 37.2417 105.875 37.3625 105.309 37.5972C104.743 37.832 104.23 38.176 103.797 38.6096V38.6096Z" fill="black"/>
<path d="M225.75 110.75C225.75 111.083 225.583 111.417 225.25 111.75C223.083 114.083 220.625 116 217.875 117.5C215.208 119 212.375 120.208 209.375 121.125C206.458 122.042 203.417 122.667 200.25 123C197.083 123.417 194 123.625 191 123.625C188.333 123.625 185.667 123.5 183 123.25C180.333 123.083 177.667 122.833 175 122.5C170.25 121.833 165.5 121.292 160.75 120.875C156.083 120.458 151.333 120.25 146.5 120.25C144.583 120.25 142.667 120.292 140.75 120.375C138.833 120.458 136.917 120.583 135 120.75C134.75 121 134.458 121.25 134.125 121.5C133.792 121.75 133.417 121.875 133 121.875C132.5 121.875 132.042 121.667 131.625 121.25C131.208 120.833 131 120.333 131 119.75C131 119.5 131.042 119.292 131.125 119.125C131.125 119.042 131.083 118.958 131 118.875C131 118.875 131 118.792 131 118.625C131 118.042 131.208 117.667 131.625 117.5C132.042 117.25 132.458 117.042 132.875 116.875C135.458 113.458 137.833 109.875 140 106.125C142.25 102.375 144.292 98.5833 146.125 94.75C148.042 90.8333 149.833 86.9167 151.5 83C153.25 79 154.958 75 156.625 71C158.875 65.8333 161.292 60.7083 163.875 55.625C166.542 50.4583 169.583 45.625 173 41.125C176.417 36.625 180.333 32.6667 184.75 29.25C189.167 25.75 194.25 23.125 200 21.375H200.25C200.667 21.375 201.042 21.625 201.375 22.125C201.792 22.625 202 23.0833 202 23.5C202 24.1667 201.708 24.6667 201.125 25C199.458 25.8333 197.917 26.5417 196.5 27.125C195.083 27.7083 193.542 28.5833 191.875 29.75C188.208 32.25 184.917 35.2083 182 38.625C179.083 41.9583 176.458 45.5417 174.125 49.375C171.792 53.2083 169.667 57.2083 167.75 61.375C165.917 65.4583 164.167 69.5 162.5 73.5C161 77 159.542 80.5417 158.125 84.125C156.792 87.7083 155.333 91.25 153.75 94.75C152.167 98.25 150.375 101.667 148.375 105C146.458 108.25 144.25 111.333 141.75 114.25C144.833 113.75 148 113.5 151.25 113.5C154.833 113.5 158.417 113.75 162 114.25C165.667 114.667 169.292 115.125 172.875 115.625C176.458 116.125 180.042 116.625 183.625 117.125C187.208 117.542 190.833 117.75 194.5 117.75C198.667 117.75 202.75 117.375 206.75 116.625C210.75 115.875 214.583 114.417 218.25 112.25C219.083 111.75 219.833 111.25 220.5 110.75C221.25 110.167 222.042 109.583 222.875 109C223.125 108.75 223.417 108.625 223.75 108.625C224.167 108.625 224.583 108.875 225 109.375C225.5 109.875 225.75 110.333 225.75 110.75ZM256.25 24.875C256.25 25.375 256.042 25.9583 255.625 26.625L255.5 27C255.667 27.5 255.75 27.875 255.75 28.125C255.167 28.5417 254.75 29 254.5 29.5C254.25 29.9167 253.667 30.125 252.75 30.125C252 30.125 251.25 29.8333 250.5 29.25C249.75 28.5833 249.375 27.7917 249.375 26.875C249.375 25.375 249.5 24.1667 249.75 23.25C250.083 22.25 251.208 21.75 253.125 21.75C253.875 21.75 254.583 22.0833 255.25 22.75C255.917 23.4167 256.25 24.125 256.25 24.875ZM255.375 104.625C255.375 105.042 255.25 105.375 255 105.625C253.417 107.542 251.875 109.458 250.375 111.375C248.958 113.208 247.417 114.917 245.75 116.5C244.167 118.083 242.375 119.417 240.375 120.5C238.375 121.667 236.083 122.5 233.5 123C231.25 122 229.708 120.667 228.875 119C228.042 117.417 227.625 115.458 227.625 113.125V108.625C227.625 106.458 227.833 104.208 228.25 101.875C228.75 99.5417 229.25 97.2917 229.75 95.125C230.5 91.875 231.333 88.375 232.25 84.625C233.25 80.875 234.375 77.1667 235.625 73.5C236.958 69.75 238.458 66.1667 240.125 62.75C241.792 59.25 243.667 56.2083 245.75 53.625C246.167 53.2083 246.583 53 247 53C247.5 53 248 53.2083 248.5 53.625C249 53.9583 249.25 54.4167 249.25 55V55.25C247.833 59.6667 246.208 64.3333 244.375 69.25C242.625 74.0833 240.917 79.0417 239.25 84.125C237.667 89.125 236.292 94.125 235.125 99.125C234.042 104.125 233.5 108.958 233.5 113.625C233.5 114.125 233.5 114.833 233.5 115.75C233.583 116.667 233.875 117.25 234.375 117.5C236.208 117.167 238.125 116.208 240.125 114.625C242.208 113.042 244.125 111.375 245.875 109.625C247.708 107.875 249.292 106.292 250.625 104.875C251.958 103.458 252.875 102.75 253.375 102.75C253.792 102.75 254.208 102.958 254.625 103.375C255.125 103.792 255.375 104.208 255.375 104.625ZM310 58C310 59.0833 309.5 59.7083 308.5 59.875C308.083 60.0417 307.667 60.125 307.25 60.125C306.917 60.0417 306.542 60.0417 306.125 60.125C305.125 60.2083 304.125 60.3333 303.125 60.5C302.208 60.6667 301.25 60.8333 300.25 61C295.75 61.9167 291.333 63.4167 287 65.5C282.75 67.5 279.042 70.1667 275.875 73.5C274.958 74.5 274.208 75.5833 273.625 76.75C273.125 77.8333 272.875 79.0833 272.875 80.5C272.875 81.4167 273.375 82.125 274.375 82.625C275.375 83.125 276.583 83.625 278 84.125C279.5 84.625 281.083 85.1667 282.75 85.75C284.5 86.3333 286.083 87.1667 287.5 88.25C289 89.3333 290.25 90.75 291.25 92.5C292.25 94.1667 292.75 96.3333 292.75 99C292.75 102.083 292.167 105.042 291 107.875C289.833 110.708 288.208 113.25 286.125 115.5C284.042 117.667 281.625 119.375 278.875 120.625C276.125 121.958 273.208 122.625 270.125 122.625C267.208 122.625 264.625 122 262.375 120.75C260.208 119.5 258.375 117.875 256.875 115.875C255.375 113.875 254.25 111.625 253.5 109.125C252.75 106.542 252.375 103.917 252.375 101.25C252.375 100.75 252.375 100.125 252.375 99.375C252.458 98.5417 252.542 97.75 252.625 97C252.792 96.25 253.042 95.5833 253.375 95C253.708 94.4167 254.208 94.125 254.875 94.125C255.292 94.125 255.708 94.2917 256.125 94.625C256.625 94.9583 256.875 95.375 256.875 95.875C256.875 97.7917 257.083 99.9167 257.5 102.25C258 104.583 258.75 106.75 259.75 108.75C260.75 110.75 262.083 112.458 263.75 113.875C265.417 115.208 267.458 115.875 269.875 115.875C272.042 115.875 274.125 115.417 276.125 114.5C278.125 113.5 279.875 112.208 281.375 110.625C282.958 109.042 284.167 107.25 285 105.25C285.917 103.167 286.375 101.042 286.375 98.875V97.625C286.375 96.2083 285.875 95.0417 284.875 94.125C283.958 93.2083 282.792 92.4583 281.375 91.875C279.958 91.2083 278.417 90.5833 276.75 90C275.083 89.4167 273.542 88.75 272.125 88C270.708 87.1667 269.5 86.1667 268.5 85C267.583 83.8333 267.125 82.2917 267.125 80.375C267.125 78.375 267.542 76.4583 268.375 74.625C269.292 72.7917 270.458 71.1667 271.875 69.75C276.792 65 282.417 61.5833 288.75 59.5C295.167 57.3333 301.75 56.25 308.5 56.25C309 56.25 309.375 56.4583 309.625 56.875C309.875 57.2083 310 57.5833 310 58ZM356.125 58C356.125 59.0833 355.625 59.7083 354.625 59.875C354.208 60.0417 353.792 60.125 353.375 60.125C353.042 60.0417 352.667 60.0417 352.25 60.125C351.25 60.2083 350.25 60.3333 349.25 60.5C348.333 60.6667 347.375 60.8333 346.375 61C341.875 61.9167 337.458 63.4167 333.125 65.5C328.875 67.5 325.167 70.1667 322 73.5C321.083 74.5 320.333 75.5833 319.75 76.75C319.25 77.8333 319 79.0833 319 80.5C319 81.4167 319.5 82.125 320.5 82.625C321.5 83.125 322.708 83.625 324.125 84.125C325.625 84.625 327.208 85.1667 328.875 85.75C330.625 86.3333 332.208 87.1667 333.625 88.25C335.125 89.3333 336.375 90.75 337.375 92.5C338.375 94.1667 338.875 96.3333 338.875 99C338.875 102.083 338.292 105.042 337.125 107.875C335.958 110.708 334.333 113.25 332.25 115.5C330.167 117.667 327.75 119.375 325 120.625C322.25 121.958 319.333 122.625 316.25 122.625C313.333 122.625 310.75 122 308.5 120.75C306.333 119.5 304.5 117.875 303 115.875C301.5 113.875 300.375 111.625 299.625 109.125C298.875 106.542 298.5 103.917 298.5 101.25C298.5 100.75 298.5 100.125 298.5 99.375C298.583 98.5417 298.667 97.75 298.75 97C298.917 96.25 299.167 95.5833 299.5 95C299.833 94.4167 300.333 94.125 301 94.125C301.417 94.125 301.833 94.2917 302.25 94.625C302.75 94.9583 303 95.375 303 95.875C303 97.7917 303.208 99.9167 303.625 102.25C304.125 104.583 304.875 106.75 305.875 108.75C306.875 110.75 308.208 112.458 309.875 113.875C311.542 115.208 313.583 115.875 316 115.875C318.167 115.875 320.25 115.417 322.25 114.5C324.25 113.5 326 112.208 327.5 110.625C329.083 109.042 330.292 107.25 331.125 105.25C332.042 103.167 332.5 101.042 332.5 98.875V97.625C332.5 96.2083 332 95.0417 331 94.125C330.083 93.2083 328.917 92.4583 327.5 91.875C326.083 91.2083 324.542 90.5833 322.875 90C321.208 89.4167 319.667 88.75 318.25 88C316.833 87.1667 315.625 86.1667 314.625 85C313.708 83.8333 313.25 82.2917 313.25 80.375C313.25 78.375 313.667 76.4583 314.5 74.625C315.417 72.7917 316.583 71.1667 318 69.75C322.917 65 328.542 61.5833 334.875 59.5C341.292 57.3333 347.875 56.25 354.625 56.25C355.125 56.25 355.5 56.4583 355.75 56.875C356 57.2083 356.125 57.5833 356.125 58ZM404.25 98.5C402.083 102.917 399.833 106.875 397.5 110.375C395.167 113.792 392.125 117.125 388.375 120.375C386.542 122.042 384.458 122.875 382.125 122.875C380.875 122.875 379.667 122.5 378.5 121.75C377.417 121.083 376.667 120.125 376.25 118.875C376.083 118.458 375.958 117.875 375.875 117.125C375.875 116.375 375.833 115.583 375.75 114.75C375.75 113.917 375.75 113.125 375.75 112.375C375.833 111.542 375.875 110.875 375.875 110.375C372.958 113.875 369.5 116.833 365.5 119.25C361.583 121.75 357.25 123 352.5 123C352.25 123 351.875 122.917 351.375 122.75C350.958 122.583 350.625 122.458 350.375 122.375C348.458 121.458 347 120 346 118C345.083 116 344.625 114 344.625 112C344.625 109.25 344.958 106.542 345.625 103.875C346.375 101.125 347.333 98.5 348.5 96C349.75 93.4167 351.167 90.9583 352.75 88.625C354.333 86.2917 356 84.0833 357.75 82C362.25 76.4167 367.417 71.5833 373.25 67.5C379.083 63.3333 385.417 60 392.25 57.5C392.333 57.4167 392.5 57.375 392.75 57.375C393.333 57.375 393.75 57.5833 394 58C394.333 58.4167 394.5 58.875 394.5 59.375C394.5 60.125 394.208 60.625 393.625 60.875C392.208 61.625 390.792 62.3333 389.375 63C388.042 63.5833 386.708 64.25 385.375 65C376.125 70.3333 368.333 77.1667 362 85.5C360.75 87.1667 359.458 89.0417 358.125 91.125C356.792 93.2083 355.583 95.375 354.5 97.625C353.417 99.7917 352.5 102.042 351.75 104.375C351.083 106.708 350.75 108.958 350.75 111.125C350.75 111.458 350.792 111.958 350.875 112.625C350.958 113.208 351.083 113.833 351.25 114.5C351.417 115.083 351.667 115.625 352 116.125C352.417 116.542 352.875 116.75 353.375 116.75C355.792 116.75 358.125 116.125 360.375 114.875C362.708 113.625 364.875 112.042 366.875 110.125C368.875 108.208 370.667 106.167 372.25 104C373.833 101.833 375.125 99.7917 376.125 97.875C378.042 94.375 379.75 90.875 381.25 87.375C382.75 83.7917 384.25 80.2083 385.75 76.625C386.333 75.125 387 73.375 387.75 71.375C388.583 69.375 389.375 67.6667 390.125 66.25C390.458 65.6667 391 65.375 391.75 65.375C392.333 65.375 392.833 65.5417 393.25 65.875C393.667 66.2083 393.875 66.6667 393.875 67.25L393.75 67.5C393.083 70.5 392.333 73.5417 391.5 76.625C390.667 79.625 389.75 82.5833 388.75 85.5C388.333 86.6667 387.833 87.9583 387.25 89.375C386.667 90.7917 386.208 92 385.875 93C385.708 93.5833 385.583 94.1667 385.5 94.75C385.5 95.3333 385.458 95.9167 385.375 96.5C385.125 97.8333 384.833 99.1667 384.5 100.5C384.25 101.75 383.958 103.042 383.625 104.375C383.208 106.042 382.833 107.75 382.5 109.5C382.25 111.167 382.125 112.875 382.125 114.625C382.125 115.042 382.125 115.417 382.125 115.75C382.125 116.083 382.167 116.417 382.25 116.75C382.833 116.75 383.5 116.5 384.25 116C385.083 115.5 385.917 114.917 386.75 114.25C387.583 113.5 388.333 112.75 389 112C389.75 111.25 390.333 110.667 390.75 110.25C393.25 107.583 395.625 104.625 397.875 101.375C398.458 100.708 398.958 100 399.375 99.25C399.875 98.4167 400.417 97.6667 401 97C401.25 96.5833 401.625 96.375 402.125 96.375C402.708 96.375 403.208 96.5833 403.625 97C404.042 97.4167 404.25 97.9167 404.25 98.5ZM438.75 24.875C438.75 25.375 438.542 25.9583 438.125 26.625L438 27C438.167 27.5 438.25 27.875 438.25 28.125C437.667 28.5417 437.25 29 437 29.5C436.75 29.9167 436.167 30.125 435.25 30.125C434.5 30.125 433.75 29.8333 433 29.25C432.25 28.5833 431.875 27.7917 431.875 26.875C431.875 25.375 432 24.1667 432.25 23.25C432.583 22.25 433.708 21.75 435.625 21.75C436.375 21.75 437.083 22.0833 437.75 22.75C438.417 23.4167 438.75 24.125 438.75 24.875ZM437.875 104.625C437.875 105.042 437.75 105.375 437.5 105.625C435.917 107.542 434.375 109.458 432.875 111.375C431.458 113.208 429.917 114.917 428.25 116.5C426.667 118.083 424.875 119.417 422.875 120.5C420.875 121.667 418.583 122.5 416 123C413.75 122 412.208 120.667 411.375 119C410.542 117.417 410.125 115.458 410.125 113.125V108.625C410.125 106.458 410.333 104.208 410.75 101.875C411.25 99.5417 411.75 97.2917 412.25 95.125C413 91.875 413.833 88.375 414.75 84.625C415.75 80.875 416.875 77.1667 418.125 73.5C419.458 69.75 420.958 66.1667 422.625 62.75C424.292 59.25 426.167 56.2083 428.25 53.625C428.667 53.2083 429.083 53 429.5 53C430 53 430.5 53.2083 431 53.625C431.5 53.9583 431.75 54.4167 431.75 55V55.25C430.333 59.6667 428.708 64.3333 426.875 69.25C425.125 74.0833 423.417 79.0417 421.75 84.125C420.167 89.125 418.792 94.125 417.625 99.125C416.542 104.125 416 108.958 416 113.625C416 114.125 416 114.833 416 115.75C416.083 116.667 416.375 117.25 416.875 117.5C418.708 117.167 420.625 116.208 422.625 114.625C424.708 113.042 426.625 111.375 428.375 109.625C430.208 107.875 431.792 106.292 433.125 104.875C434.458 103.458 435.375 102.75 435.875 102.75C436.292 102.75 436.708 102.958 437.125 103.375C437.625 103.792 437.875 104.208 437.875 104.625ZM467.611 115.792C465.499 117.264 462.939 118 459.931 118H457.915C452.283 118 448.155 116.816 445.531 114.448C442.907 112.016 441.595 108.08 441.595 102.64V85.36C441.595 79.984 442.907 76.08 445.531 73.648C448.219 71.216 452.347 70 457.915 70H467.131V50.8H475.291V118H467.611V115.792ZM460.891 110.8C463.003 110.8 464.571 110.256 465.595 109.168C466.619 108.016 467.131 106.8 467.131 105.52V77.2H456.955C454.587 77.2 452.795 77.744 451.579 78.832C450.363 79.92 449.755 81.456 449.755 83.44V104.56C449.755 106.544 450.363 108.08 451.579 109.168C452.795 110.256 454.587 110.8 456.955 110.8H460.891ZM506.009 118C500.377 118 496.249 116.816 493.625 114.448C491.001 112.016 489.689 108.08 489.689 102.64V85.36C489.689 79.856 490.873 75.92 493.241 73.552C495.609 71.184 499.545 70 505.049 70H507.641C512.185 70 515.609 71.28 517.913 73.84C520.281 76.336 521.465 80.016 521.465 84.88V97.36H497.849V104.56C497.849 106.544 498.457 108.08 499.673 109.168C500.889 110.256 502.681 110.8 505.049 110.8H518.393V118H506.009ZM513.497 90.16V82.96C513.497 81.296 512.953 79.92 511.865 78.832C510.777 77.744 509.401 77.2 507.737 77.2H504.089C501.785 77.2 500.153 77.744 499.193 78.832C498.297 79.856 497.849 81.392 497.849 83.44V90.16H513.497ZM554.409 118H542.601L529.641 70H538.377L548.745 111.184L558.825 70H567.273L554.409 118Z" fill="black"/>
</svg>
